# xmcd CD database file
#
# Track frame offsets:
#	150
#	12152
#	46065
#	59910
#	97015
#	122705
#	147807
#	163275
#	198600
#	225575
#	249240
#	262247
#
# Disc length: 3999 seconds
#
# Revision: 0
# Processed by: cddbd v1.5.1PL2 Copyright (c) Steve Scherf et al.
# Submitted via: CDex 1.51
#
DISCID=ae0f9d0c
DTITLE=淀川工業高校 吹奏楽部 - 青春の軌跡2
DYEAR=1900
DGENRE=吹奏楽
TTITLE0=そよ風のマーチ
TTITLE1=シチリア島の夕べの祈り 序曲
TTITLE2=マーチ・エイプリル・メイ
TTITLE3=エル・サロン・メヒコ
TTITLE4=雲のコラージュ
TTITLE5=教会のステンドグラス〜大天使聖ミカエル
TTITLE6=スプリング・マーチ
TTITLE7=ダフニスとクロエ〜第2組曲
TTITLE8=般若
TTITLE9=スペイン狂詩曲〜祭り
TTITLE10=マーチ・夢と勇気、憧れ、希望
TTITLE11=大阪俗謡による幻想曲
EXTD=
EXTT0=
EXTT1=
EXTT2=
EXTT3=
EXTT4=
EXTT5=
EXTT6=
EXTT7=
EXTT8=
EXTT9=
EXTT10=
EXTT11=
PLAYORDER=
